<?xml version="1.0" encoding="utf-8"?>
<!-- Generator: Adobe Illustrator 21.1.0, SVG Export Plug-In . SVG Version: 6.00 Build 0)  -->
<svg version="1.1" id="Livello_1" xmlns="http://www.w3.org/2000/svg" xmlns:xlink="http://www.w3.org/1999/xlink" x="0px" y="0px"
	 viewBox="0 0 325.5 51" style="enable-background:new 0 0 325.5 51;" xml:space="preserve">
<style type="text/css">
	.st0{fill:#020203;}
	.st1{fill:#D4006D;}
</style>
<g>
	<g>
		<g>
			<rect x="295.1" y="1" class="st0" width="30.4" height="5.2"/>
			<rect x="302.7" y="22.9" class="st0" width="15.2" height="5.2"/>
			<rect x="295.1" y="44.9" class="st0" width="30.4" height="5.2"/>
		</g>
		<path class="st1" d="M23.8,0.9h-7.2L0,50.1h6.4l4.7-14.9H29l4.6,14.9h6.8L23.8,0.9z M12.7,30.1l2.3-7.4c1.7-5.5,3.3-10.9,4.9-16.6
			h0.3c1.5,5.7,3.2,11.1,4.9,16.6l2.3,7.4H12.7z"/>
		<path class="st1" d="M46.4,0.9h14c10.1,0,16.9,3.4,16.9,12c0,4.9-2.8,9.2-8.6,10.7v0.3C75.8,25.1,80,29,80,35.7
			c0,9.7-7.5,14.4-18.5,14.4H46.4V0.9z M59.3,21.6c8.4,0,11.8-2.7,11.8-8.2c0-5.3-3.9-7.3-11.5-7.3h-7v15.5L59.3,21.6L59.3,21.6z
			 M60.5,44.9c8.4,0,13.3-2.8,13.3-9.5c0-6.1-4.7-8.6-13.3-8.6h-8v18H60.5z"/>
		<polygon class="st1" points="123.7,50.1 116.6,50.1 102.3,24.3 93.9,34.4 93.9,50.1 87.5,50.1 87.5,0.9 93.9,0.9 93.9,25.5 
			94.1,25.5 114.7,0.9 121.9,0.9 106.3,19.6 		"/>
		<path class="st0" d="M126.5,43.7l3.8-4.4c3.8,3.7,8.9,6.1,14.4,6.1c6.8,0,10.7-3.2,10.7-7.7c0-5.3-3.8-6.8-8.8-8.9l-7.1-3.2
			c-4.9-2-10.6-5.4-10.6-12.7c0-7.5,6.8-13.1,16.1-13.1c6.2,0,11.6,2.5,15.2,6.1l-3.3,4.1c-3.2-2.9-7-4.6-12.1-4.6
			c-5.7,0-9.5,2.7-9.5,7.1c0,4.7,4.6,6.5,8.8,8.1l6.9,3.1c6.1,2.4,10.9,5.9,10.9,13.1c0,7.8-6.6,14-17.4,14
			C137.1,51,130.9,48.2,126.5,43.7z"/>
		<path class="st0" d="M182.1,6.2h-16.3V0.9h38.9v5.3h-16.3v43.9h-6.3V6.2z"/>
		<path class="st0" d="M207.6,25.3c0-15.3,7.8-24.4,18.9-24.4s18.9,9,18.9,24.4c0,15.6-7.8,24.8-18.9,24.8
			C215.4,50.1,207.6,40.9,207.6,25.3z M238.9,25.3c0-11.9-5-19-12.4-19c-7.4,0-12.4,7.1-12.4,19c0,12.2,5,19.5,12.4,19.5
			C233.9,44.8,238.9,37.5,238.9,25.3z"/>
		<path class="st0" d="M251.4,0.9h6.9l15.8,30.9l4.7,10.2h0.2c-0.2-4.9-0.8-10.4-0.8-15.6V0.9h6v49.2h-6.9l-15.8-30.9L256.7,9h-0.1
			c0.2,5,0.8,10.3,0.8,15.4v25.7h-6L251.4,0.9L251.4,0.9z"/>
	</g>
</g>
</svg>
